<svg xmlns="http://www.w3.org/2000/svg" id="i-cart-empty" class="header-cart-d__icon" width="40" height="36"><path d="M29.285 35.216c2.261-.593 3.171-3.282 1.732-5.12-1.271-1.626-3.78-1.626-5.052 0a3.133 3.133 0 00-.688 1.995c0 1.49.986 2.755 2.438 3.127a3.569 3.569 0 001.57-.002zm-15.891.003a3.367 3.367 0 001.732-1.084c.255-.297.568-.942.66-1.36.254-1.153-.167-2.366-1.1-3.167-.297-.255-.941-.568-1.36-.66-1.152-.254-2.366.167-3.166 1.1-.256.297-.569.941-.66 1.36-.254 1.153.167 2.366 1.099 3.166.297.256.942.569 1.36.66a3.591 3.591 0 001.435-.015zm20.99-8.281c0-.028 4.904-18.327 5.198-19.4.259-.94.382-1.46.382-1.605 0-.092-.004-.092-2.983-.092H9.563V.797H.054V4.59h5.714v22.366h14.308c7.87 0 14.308-.008 14.308-.02z"></path></svg>